<svg version="1.1" id="Layer_1" xmlns="http://www.w3.org/2000/svg" xmlns:xlink="http://www.w3.org/1999/xlink" x="0px" y="0px"
	 width="100%" viewBox="0 0 1414 2000" enable-background="new 0 0 1414 2000" xml:space="preserve">
<path fill="#FFFFFF" opacity="1.000000" stroke="none" 
	d="
M1.000000,510.000000 
	C1.000000,340.000031 1.000000,170.500046 1.000000,1.000046 
	C472.333252,1.000030 943.666504,1.000030 1414.999756,1.000015 
	C1414.999878,667.666504 1414.999878,1334.333008 1415.000000,2000.999634 
	C943.666870,2000.999756 472.333771,2000.999756 1.000318,2000.999878 
	C1.000000,1504.166626 1.000000,1007.333313 1.000000,510.000000 
M425.996735,58.967499 
	C425.788574,57.120079 426.530914,54.736763 423.240326,54.827000 
	C419.301178,54.935020 415.356812,54.852497 411.246704,54.852497 
	C411.246704,58.893147 411.246704,62.283718 411.246704,65.765450 
	C413.062744,65.909317 414.544586,66.026703 416.029541,66.935165 
	C416.042023,68.255890 416.054504,69.576622 415.188293,71.006172 
	C411.600891,70.478722 410.805847,72.174690 410.831329,75.542946 
	C410.978546,94.986328 410.896423,114.431396 410.918579,133.875870 
	C410.920013,135.155228 411.142273,136.434311 411.266754,137.766357 
	C413.064728,137.909058 414.545563,138.026581 416.029846,138.993805 
	C415.635010,141.833496 416.426025,143.324921 419.735687,143.064270 
	C423.314606,142.782394 426.932922,143.000443 430.739136,143.000443 
	C430.739136,120.447777 430.739136,98.474068 430.739136,76.064247 
	C428.995697,76.064247 427.536591,76.064247 425.967651,75.247948 
	C425.940796,73.876289 425.913910,72.504623 426.782990,71.030647 
	C428.161560,70.889061 429.540100,70.747482 430.743469,70.623886 
	C430.743469,66.773018 430.743469,63.520069 430.743469,60.066486 
	C429.013977,59.973812 427.551208,59.895428 425.996735,58.967499 
M376.994293,137.992310 
	C376.994293,137.992310 376.946747,138.020309 376.932373,138.742310 
	C378.612915,139.990845 380.221100,142.181213 381.987152,142.316895 
	C388.047516,142.782486 394.231384,143.093704 400.236298,142.369812 
	C405.064667,141.787720 408.319641,137.861252 408.604767,133.062271 
	C409.101318,124.704727 408.742950,116.296394 408.742950,107.649841 
	C406.843048,107.649841 405.396393,107.649841 403.853790,106.729317 
	C404.154327,103.778351 402.921692,102.596550 399.881927,102.762238 
	C396.271423,102.959045 392.639374,102.760628 388.951569,101.858757 
	C388.958344,97.921257 388.965118,93.983749 389.924377,90.027573 
	C391.193237,90.068291 392.462097,90.109009 393.602203,90.944473 
	C393.714172,92.219414 393.826141,93.494347 393.925873,94.630035 
	C399.052124,94.630035 403.788361,94.630035 408.823608,94.630035 
	C408.823608,86.290787 409.357605,78.270912 408.556000,70.386826 
	C408.243286,67.311157 404.925232,64.541054 402.554596,61.150314 
	C399.615021,56.501453 395.417267,54.443695 389.919769,54.814308 
	C387.436920,54.981693 384.933289,54.828167 382.439270,54.845428 
	C373.021790,54.910610 368.344666,59.428806 368.300842,68.872314 
	C368.215210,87.328705 368.260193,105.785797 368.287140,124.242546 
	C368.295532,129.994492 370.383270,134.599243 376.093262,137.666290 
	C376.396973,137.793045 376.700684,137.919800 376.994293,137.992310 
M468.066498,62.316582 
	C467.719269,62.034767 467.372040,61.752949 466.628784,60.982567 
	C463.916748,56.677017 460.102173,54.552483 454.933319,54.818268 
	C451.945801,54.971882 448.943542,54.814251 445.948578,54.851559 
	C437.036316,54.962574 432.934509,59.081142 432.917877,68.116302 
	C432.877777,89.916191 432.897430,111.716209 432.917206,133.516144 
	C432.918488,134.940460 433.124481,136.364578 433.235626,137.793274 
	C435.213257,137.931290 436.702759,138.035233 438.171112,138.974319 
	C438.228485,140.879578 437.623291,143.116486 440.869781,143.023529 
	C444.936157,142.907104 449.008392,142.995514 453.491791,142.995514 
	C453.491791,140.949768 453.491791,139.502182 454.432648,138.020065 
	C455.685852,138.059769 456.939026,138.099472 458.171082,138.974350 
	C458.921997,140.310318 459.570343,142.717102 460.441254,142.800537 
	C464.651031,143.203812 468.920624,142.982254 473.268097,142.982254 
	C473.407440,141.444138 473.544891,140.631348 473.545380,139.818497 
	C473.558044,118.004875 473.574341,96.191208 473.527863,74.377686 
	C473.523651,72.396652 473.605286,70.154305 472.746063,68.501846 
	C471.654510,66.402664 469.642334,64.782227 467.994965,62.992706 
	C467.994965,62.992706 468.044189,62.990871 468.066498,62.316582 
M249.552063,137.708786 
	C253.455841,142.895126 258.447693,144.235840 264.509399,142.029984 
	C265.324951,141.733215 266.300262,141.688248 267.176483,141.776337 
	C272.218567,142.283142 277.253052,142.865158 282.492493,143.444031 
	C282.492493,126.488335 282.492493,110.786781 282.492493,94.611946 
	C280.613800,94.611946 278.997833,94.611946 277.255859,93.628868 
	C277.057892,92.332832 276.859924,91.036797 277.581238,89.669022 
	C279.186523,89.536423 280.791779,89.403824 282.659698,89.249527 
	C282.659698,82.725990 282.982025,76.575806 282.536560,70.481743 
	C282.277130,66.932907 281.177704,63.199032 276.275116,61.697464 
	C274.126892,57.236160 270.465485,54.974586 265.633606,54.646709 
	C262.326447,54.422295 258.993134,54.287128 255.685104,54.428917 
	C246.526749,54.821453 242.152542,59.447937 242.136887,68.664200 
	C242.105591,87.105904 242.189301,105.548012 242.092117,123.989258 
	C242.061340,129.829422 244.051163,134.326950 249.552063,137.708786 
M189.041428,58.099796 
	C188.355042,56.948162 187.740967,54.860111 186.970245,54.800594 
	C182.743027,54.474171 178.477417,54.644897 174.039017,54.644897 
	C174.039017,77.747971 174.202209,100.206589 173.941238,122.660271 
	C173.861206,129.546341 176.010681,134.611343 182.121674,138.560257 
	C184.952499,140.027390 187.651474,141.950241 190.655334,142.819366 
	C193.115585,143.531204 195.938995,142.999603 198.601410,142.999054 
	C210.541199,142.996567 214.548096,139.051376 214.555756,127.233109 
	C214.569138,106.597939 214.437485,85.961449 214.659180,65.328651 
	C214.705475,61.021461 213.680420,58.720547 209.041397,58.099800 
	C208.946152,56.998798 208.850906,55.897797 208.761444,54.863777 
	C203.777893,54.863777 199.059341,54.863777 194.180420,54.863777 
	C194.098541,56.371464 194.027924,57.671494 193.180649,59.249321 
	C191.825089,59.142780 190.469528,59.036240 189.041428,58.099796 
M318.275116,61.697464 
	C316.126129,57.233334 312.460632,54.988129 307.628082,54.642189 
	C304.651489,54.429115 301.655182,54.353874 298.671143,54.406689 
	C288.618774,54.584614 284.141113,59.146214 284.132568,69.182449 
	C284.114532,90.457718 284.121979,111.733017 284.136200,133.008301 
	C284.137268,134.588531 284.276489,136.168671 284.352570,137.771362 
	C286.460876,137.921646 287.946289,138.027542 289.355988,138.951935 
	C289.391998,140.874466 288.800507,143.109436 292.051056,143.022781 
	C296.131195,142.914001 300.216431,142.996613 304.739227,142.996613 
	C304.739227,140.929779 304.739227,139.477737 305.678680,138.008636 
	C306.929688,138.050232 308.180725,138.091827 309.355988,138.951950 
	C310.099548,140.295883 310.739777,142.718170 311.604187,142.801025 
	C315.818848,143.204941 320.093445,142.983749 324.659821,142.983749 
	C324.659821,118.330490 324.773621,94.401146 324.534760,70.475327 
	C324.499756,66.966415 323.178192,63.199394 318.275116,61.697464 
M137.004547,138.987991 
	C137.190781,140.771500 136.319748,143.126114 139.623550,143.022156 
	C143.652100,142.895401 147.687668,142.992004 151.998367,142.992004 
	C151.998367,140.944733 151.998367,139.489899 152.819504,138.012711 
	C154.185425,138.053192 155.551346,138.093658 157.004501,138.988007 
	C156.659363,141.797272 157.398911,143.338654 160.732971,143.066452 
	C164.313339,142.774124 167.936050,143.000443 172.022797,143.000443 
	C172.022797,139.482300 172.023209,136.532486 172.022736,133.582657 
	C172.019516,113.154915 172.057175,92.727005 171.978485,72.299553 
	C171.962585,68.168983 171.578903,63.998829 166.181808,62.003410 
	C163.190796,56.646412 158.640213,54.303349 152.526672,54.760162 
	C150.207077,54.933483 147.863464,54.767410 145.531204,54.792686 
	C136.118073,54.894707 131.903946,59.122578 131.891159,68.619835 
	C131.861328,90.778893 131.879456,112.938034 131.886841,135.097137 
	C131.887146,136.013062 131.975128,136.928955 132.023880,137.876434 
	C133.948792,137.977798 135.433044,138.055969 137.004547,138.987991 
M360.557587,61.152779 
	C358.148987,59.192833 355.858551,55.745010 353.310394,55.542664 
	C344.496460,54.842785 335.592804,55.272938 326.625305,55.272938 
	C326.625305,82.986023 326.625305,110.297340 326.625305,137.755310 
	C328.603119,137.903107 330.243591,138.025681 331.906067,139.006882 
	C332.039154,140.252228 332.172241,141.497574 332.301483,142.706635 
	C337.300323,142.706635 341.885864,142.706635 346.664368,142.706635 
	C346.776703,140.961212 346.871063,139.495377 347.921051,138.009537 
	C349.194214,138.049835 350.467407,138.090134 351.614441,138.928909 
	C351.718689,140.201935 351.822937,141.474960 351.918671,142.644409 
	C357.029755,142.644409 361.759064,142.644409 367.452118,142.644409 
	C364.660004,131.097412 371.546295,118.703598 362.530487,109.696091 
	C364.175385,105.568977 366.490967,102.216408 366.708588,98.732765 
	C367.266937,89.795998 366.983978,80.799706 366.853821,71.829880 
	C366.790314,67.450478 365.218689,63.714355 360.557587,61.152779 
M102.245750,71.352379 
	C101.183983,67.569489 100.122215,63.786598 98.998085,59.781525 
	C97.765251,59.557823 96.352257,59.301430 94.744987,58.302135 
	C93.744965,57.130867 92.804626,55.014835 91.734879,54.947254 
	C86.283958,54.602913 80.799583,54.788326 75.252571,54.788326 
	C75.252571,82.714691 75.252571,110.280983 75.252571,137.891434 
	C76.952484,137.969543 78.442772,138.038040 80.107658,138.937759 
	C80.318939,140.741119 79.522713,143.106628 82.790489,143.019150 
	C86.844002,142.910614 90.902626,142.993149 95.021164,142.993149 
	C95.412643,140.968979 95.717285,139.393845 96.792778,137.990631 
	C97.844742,138.020554 98.896706,138.050461 100.287064,138.789673 
	C100.695564,140.161026 101.104057,141.532379 101.436104,142.647064 
	C104.305656,142.647064 106.705620,142.647064 109.214844,142.647064 
	C109.514183,140.864136 109.759094,139.405365 110.823021,137.999954 
	C112.187782,138.044678 113.552536,138.089401 115.004539,138.988007 
	C114.654846,141.807816 115.410828,143.337769 118.741936,143.066422 
	C122.324944,142.774536 125.950119,143.000473 129.768570,143.000473 
	C129.768570,115.038750 129.768570,87.677917 129.768570,59.922070 
	C128.049362,59.922070 126.585724,59.922070 124.934708,59.118740 
	C124.808319,57.719143 124.681923,56.319542 124.569969,55.079857 
	C118.040359,55.079857 111.946938,55.079857 105.778053,55.079857 
	C104.852295,60.589211 103.971649,65.830070 102.245750,71.352379 
z"/>
<path fill="#020202" opacity="1.000000" stroke="none" 
	d="
M99.948669,138.080383 
	C98.896706,138.050461 97.844742,138.020554 96.409889,137.489410 
	C94.189651,123.508583 92.352310,110.028961 90.514969,96.549339 
	C90.284477,96.558739 90.053993,96.568146 89.823502,96.577545 
	C89.823502,110.310921 89.823502,124.044289 89.823502,138.106506 
	C86.215897,138.106506 83.074478,138.106506 79.933060,138.106506 
	C78.442772,138.038040 76.952484,137.969543 75.252571,137.891434 
	C75.252571,110.280983 75.252571,82.714691 75.252571,54.788326 
	C80.799583,54.788326 86.283958,54.602913 91.734879,54.947254 
	C92.804626,55.014835 93.744965,57.130867 94.805496,59.101635 
	C96.402710,69.558372 97.939415,79.215607 99.476120,88.872841 
	C99.807381,88.891487 100.138641,88.910141 100.469894,88.928787 
	C101.343597,82.976166 102.217300,77.023544 103.091003,71.070923 
	C103.971649,65.830070 104.852295,60.589211 105.778053,55.079857 
	C111.946938,55.079857 118.040359,55.079857 124.569969,55.079857 
	C124.681923,56.319542 124.808319,57.719143 124.930801,59.985466 
	C124.926895,86.439407 124.926895,112.026619 124.926895,138.134140 
	C121.181381,138.134140 118.049339,138.134140 114.917297,138.134140 
	C113.552536,138.089401 112.187782,138.044678 110.378433,137.509109 
	C109.889961,123.205467 109.846085,109.392662 109.802200,95.579865 
	C109.697945,95.692947 109.593689,95.806038 109.341324,96.079781 
	C107.512924,109.869781 105.659035,123.851967 103.807732,137.814682 
	C102.251602,137.921829 101.100136,138.001114 99.948669,138.080383 
z"/>
<path fill="#FEDD5A" opacity="1.000000" stroke="none" 
	d="
M331.884064,138.148270 
	C330.243591,138.025681 328.603119,137.903107 326.625305,137.755310 
	C326.625305,110.297340 326.625305,82.986023 326.625305,55.272938 
	C335.592804,55.272938 344.496460,54.842785 353.310394,55.542664 
	C355.858551,55.745010 358.148987,59.192833 360.773865,61.849670 
	C361.277954,71.337540 361.532928,80.129753 361.865173,88.919052 
	C362.086456,94.773514 361.166412,100.165527 356.489532,103.559814 
	C358.289276,106.715919 361.053192,109.436516 361.270660,112.347359 
	C361.895721,120.714104 361.491119,129.157776 361.491119,138.130417 
	C358.006012,138.130417 354.873291,138.130417 351.740570,138.130417 
	C350.467407,138.090134 349.194214,138.049835 347.187164,137.695251 
	C346.359711,130.929413 346.453735,124.466789 346.074341,118.032082 
	C345.935211,115.672310 348.135803,112.128365 343.842865,111.381065 
	C343.587036,111.336540 342.052216,115.844376 341.947296,118.269966 
	C341.670563,124.668015 341.853607,131.085953 341.853607,138.148270 
	C338.097076,138.148270 334.990570,138.148270 331.884064,138.148270 
M341.853516,83.497650 
	C341.855957,87.328941 341.734283,91.167030 341.943817,94.986969 
	C341.999603,96.004021 343.070435,96.965401 343.675201,97.952347 
	C344.501465,96.966583 346.019836,95.997902 346.044678,94.992340 
	C346.246063,86.834969 346.282959,78.667427 346.053009,70.511925 
	C346.017426,69.250076 344.368042,68.033730 343.464966,66.796333 
	C342.927704,67.077003 342.390472,67.357666 341.853241,67.638329 
	C341.853241,72.592461 341.853241,77.546600 341.853516,83.497650 
z"/>
<path fill="#020202" opacity="1.000000" stroke="none" 
	d="
M156.917267,138.134140 
	C155.551346,138.093658 154.185425,138.053192 152.361465,137.554977 
	C151.903427,128.700073 151.903427,120.302910 151.903427,111.731796 
	C149.978607,111.731796 148.605591,111.731796 146.751526,111.731796 
	C146.751526,120.596405 146.751526,129.129761 146.751526,138.134140 
	C143.154068,138.134140 140.035690,138.134140 136.917297,138.134125 
	C135.433044,138.055969 133.948792,137.977798 132.023880,137.876434 
	C131.975128,136.928955 131.887146,136.013062 131.886841,135.097137 
	C131.879456,112.938034 131.861328,90.778893 131.891159,68.619835 
	C131.903946,59.122578 136.118073,54.894707 145.531204,54.792686 
	C147.863464,54.767410 150.207077,54.933483 152.526672,54.760162 
	C158.640213,54.303349 163.190796,56.646412 166.300797,62.738060 
	C166.540985,87.910675 166.663742,112.348633 166.763321,136.786682 
	C166.764435,137.064499 166.463867,137.343552 166.010315,138.134140 
	C163.172714,138.134140 160.044983,138.134140 156.917267,138.134140 
M151.884262,89.445793 
	C151.883652,83.487206 152.036316,77.521843 151.773285,71.574867 
	C151.708542,70.111183 150.289093,68.707420 149.492432,67.276115 
	C148.623474,68.761978 147.045349,70.228012 147.003128,71.737000 
	C146.767166,80.171402 146.896698,88.616203 146.926743,97.057365 
	C146.928391,97.520729 147.158051,97.983276 147.317871,98.582230 
	C148.749893,98.582230 150.116043,98.582230 151.884232,98.582230 
	C151.884232,95.660965 151.884232,93.042763 151.884262,89.445793 
z"/>
<path fill="#FEDD5A" opacity="1.000000" stroke="none" 
	d="
M309.431732,138.133423 
	C308.180725,138.091827 306.929688,138.050232 304.978638,137.680542 
	C304.342010,130.376312 304.382629,123.399864 304.482056,116.424255 
	C304.513977,114.186394 305.598114,111.434082 301.829224,111.250336 
	C298.120728,111.069542 299.192291,113.947220 299.167847,115.858612 
	C299.075104,123.113144 299.130524,130.369568 299.130524,138.133423 
	C295.374207,138.133423 292.402985,138.133423 289.431732,138.133423 
	C287.946289,138.027542 286.460876,137.921646 284.352570,137.771362 
	C284.276489,136.168671 284.137268,134.588531 284.136200,133.008301 
	C284.121979,111.733017 284.114532,90.457718 284.132568,69.182449 
	C284.141113,59.146214 288.618774,54.584614 298.671143,54.406689 
	C301.655182,54.353874 304.651489,54.429115 307.628082,54.642189 
	C312.460632,54.988129 316.126129,57.233334 318.590576,62.371948 
	C318.906036,87.903603 318.906036,112.760773 318.906036,138.133423 
	C315.367035,138.133423 312.399384,138.133423 309.431732,138.133423 
M299.130615,84.497536 
	C299.136566,88.469414 299.008484,92.449562 299.252686,96.406731 
	C299.306580,97.279610 300.638397,98.673027 301.457581,98.729660 
	C302.266754,98.785614 303.893188,97.482498 303.924835,96.723984 
	C304.289825,87.977783 304.531311,79.220955 304.468811,70.469360 
	C304.461060,69.387085 302.501190,68.318756 301.445892,67.243965 
	C300.679413,68.360283 299.324585,69.439598 299.251648,70.599548 
	C298.982086,74.885826 299.136108,79.198746 299.130615,84.497536 
z"/>
<path fill="#FEDD5A" opacity="1.000000" stroke="none" 
	d="
M458.192230,138.139175 
	C456.939026,138.099472 455.685852,138.059769 453.768555,137.682068 
	C453.042786,129.731979 453.082764,122.116241 452.807739,114.511879 
	C452.767303,113.393219 451.231964,112.328629 450.388245,111.239029 
	C449.575195,112.365456 448.463226,113.390221 448.035553,114.647705 
	C447.631653,115.835335 447.946411,117.267639 447.946381,118.592316 
	C447.946075,124.971344 447.946289,131.350372 447.946289,138.139175 
	C444.128448,138.139175 441.160339,138.139175 438.192230,138.139175 
	C436.702759,138.035233 435.213257,137.931290 433.235626,137.793274 
	C433.124481,136.364578 432.918488,134.940460 432.917206,133.516144 
	C432.897430,111.716209 432.877777,89.916191 432.917877,68.116302 
	C432.934509,59.081142 437.036316,54.962574 445.948578,54.851559 
	C448.943542,54.814251 451.945801,54.971882 454.933319,54.818268 
	C460.102173,54.552483 463.916748,56.677017 466.878204,61.561474 
	C467.433136,62.423878 467.738678,62.707375 468.044189,62.990868 
	C468.044189,62.990871 467.994965,62.992706 467.937317,63.441086 
	C467.879700,88.495415 467.879700,113.101357 467.879700,138.139175 
	C464.132660,138.139175 461.162445,138.139175 458.192230,138.139175 
M452.922211,86.485870 
	C452.921173,81.501366 453.098145,76.506523 452.809448,71.538742 
	C452.724060,70.069748 451.325073,68.677101 450.528076,67.249466 
	C449.668945,68.597107 448.107391,69.923798 448.066498,71.295853 
	C447.828766,79.263985 448.046417,87.244545 447.903748,95.217209 
	C447.838928,98.838638 449.333710,99.534309 452.922119,98.270760 
	C452.922119,94.710281 452.922119,91.093620 452.922211,86.485870 
z"/>
<path fill="#020202" opacity="1.000000" stroke="none" 
	d="
M182.133240,137.848618 
	C176.010681,134.611343 173.861206,129.546341 173.941238,122.660271 
	C174.202209,100.206589 174.039017,77.747971 174.039017,54.644897 
	C178.477417,54.644897 182.743027,54.474171 186.970245,54.800594 
	C187.740967,54.860111 188.355042,56.948162 189.006424,58.983257 
	C188.994232,80.164368 188.961365,100.462555 189.156387,120.758553 
	C189.170425,122.220146 190.847137,123.665764 191.750793,125.118813 
	C192.518600,123.695969 193.947052,122.276726 193.954849,120.849724 
	C194.067581,100.224274 193.989594,79.597771 193.957306,58.971523 
	C194.027924,57.671494 194.098541,56.371464 194.180420,54.863777 
	C199.059341,54.863777 203.777893,54.863777 208.761444,54.863777 
	C208.850906,55.897797 208.946152,56.998798 209.006409,58.983253 
	C208.992752,81.518028 209.060562,103.169456 209.012436,124.820618 
	C208.993347,133.413467 204.328476,137.917740 195.607285,137.990845 
	C191.116653,138.028503 186.624634,137.901321 182.133240,137.848618 
z"/>
<path fill="#FEDD5A" opacity="1.000000" stroke="none" 
	d="
M276.661926,89.740761 
	C276.859924,91.036797 277.057892,92.332832 277.225220,94.510635 
	C277.194580,109.458344 277.194580,123.524300 277.194580,138.263824 
	C271.436676,136.961411 265.984924,140.275116 262.845612,136.895645 
	C257.554077,136.986298 253.443100,137.056717 249.332123,137.127136 
	C244.051163,134.326950 242.061340,129.829422 242.092117,123.989258 
	C242.189301,105.548012 242.105591,87.105904 242.136887,68.664200 
	C242.152542,59.447937 246.526749,54.821453 255.685104,54.428917 
	C258.993134,54.287128 262.326447,54.422295 265.633606,54.646709 
	C270.465485,54.974586 274.126892,57.236160 276.590576,62.371899 
	C276.906036,69.881088 276.906036,76.715843 276.906036,83.875793 
	C273.437683,84.046623 270.368378,84.197807 266.846802,84.289429 
	C265.196503,84.237686 263.998474,84.245514 262.564941,83.904449 
	C262.395782,80.090240 262.812866,76.582153 262.397339,73.175629 
	C262.146729,71.121071 260.601868,69.224388 259.638550,67.256767 
	C258.802887,68.974274 257.273895,70.679466 257.243134,72.411270 
	C257.030762,84.366928 257.129761,96.328148 257.131012,108.287575 
	C257.131500,112.772339 256.943207,117.271210 257.265839,121.732918 
	C257.357849,123.005165 258.941650,124.169540 259.841370,125.383377 
	C260.582489,124.127922 261.907623,122.897774 261.963348,121.612595 
	C262.200470,116.141541 262.320374,110.637802 261.973999,105.178299 
	C261.722565,101.214783 260.428864,97.320114 260.132965,93.354965 
	C260.048615,92.224495 261.827789,90.954964 263.228851,89.805756 
	C264.987671,89.867279 266.270020,89.872246 267.967102,89.842758 
	C271.141815,89.785789 273.901886,89.763275 276.661926,89.740761 
z"/>
<path fill="#FEDD5A" opacity="1.000000" stroke="none" 
	d="
M375.847626,137.200317 
	C370.383270,134.599243 368.295532,129.994492 368.287140,124.242546 
	C368.260193,105.785797 368.215210,87.328705 368.300842,68.872314 
	C368.344666,59.428806 373.021790,54.910610 382.439270,54.845428 
	C384.933289,54.828167 387.436920,54.981693 389.919769,54.814308 
	C395.417267,54.443695 399.615021,56.501453 402.785767,61.844368 
	C403.016907,71.558548 403.016907,80.578667 403.016907,90.149727 
	C399.986206,90.149727 396.858582,90.149727 393.730957,90.149727 
	C392.462097,90.109009 391.193237,90.068291 389.191650,89.710968 
	C388.363342,88.075180 388.193604,86.756454 388.185333,85.436722 
	C388.154175,80.447701 388.283936,75.454102 388.088715,70.472588 
	C388.047882,69.430504 386.880768,68.432549 386.232666,67.414261 
	C385.445648,68.454712 384.553741,69.436066 383.919006,70.562370 
	C383.633118,71.069611 383.855469,71.866013 383.855438,72.531212 
	C383.854401,88.330772 383.853149,104.130325 383.857666,119.929886 
	C383.857971,120.926964 383.616089,122.063278 384.010590,122.882645 
	C384.420074,123.733116 385.382294,124.552299 386.274200,124.825432 
	C386.655884,124.942307 387.871735,123.715477 388.007477,122.971313 
	C388.301849,121.357765 388.097076,119.659439 388.180939,118.000053 
	C388.438080,112.910110 388.735138,107.822182 389.016663,102.733475 
	C392.639374,102.760628 396.271423,102.959045 399.881927,102.762238 
	C402.921692,102.596550 404.154327,103.778351 403.872620,107.597092 
	C403.877258,113.923859 403.982635,119.386398 403.820953,124.841011 
	C403.573730,133.182938 398.644775,137.922379 390.342773,137.996353 
	C385.877716,138.036163 381.412109,138.014328 376.946747,138.020309 
	C376.946747,138.020309 376.994293,137.992310 376.888306,137.786835 
	C376.470764,137.454346 376.159180,137.327332 375.847626,137.200317 
z"/>
<path fill="#FEDD5A" opacity="1.000000" stroke="none" 
	d="
M425.887024,71.132965 
	C425.913910,72.504623 425.940796,73.876289 425.976746,76.117081 
	C425.985809,97.146851 425.985809,117.307503 425.985809,138.144104 
	C422.231903,138.144104 419.129150,138.144104 416.026428,138.144104 
	C414.545563,138.026581 413.064728,137.909058 411.266754,137.766357 
	C411.142273,136.434311 410.920013,135.155228 410.918579,133.875870 
	C410.896423,114.431396 410.978546,94.986328 410.831329,75.542946 
	C410.805847,72.174690 411.600891,70.478722 416.072937,70.993088 
	C419.934082,71.030998 422.910553,71.081985 425.887024,71.132965 
z"/>
<path fill="#999999" opacity="1.000000" stroke="none" 
	d="
M182.127457,138.204437 
	C186.624634,137.901321 191.116653,138.028503 195.607285,137.990845 
	C204.328476,137.917740 208.993347,133.413467 209.012436,124.820618 
	C209.060562,103.169456 208.992752,81.518028 209.042694,59.398193 
	C213.680420,58.720547 214.705475,61.021461 214.659180,65.328651 
	C214.437485,85.961449 214.569138,106.597939 214.555756,127.233109 
	C214.548096,139.051376 210.541199,142.996567 198.601410,142.999054 
	C195.938995,142.999603 193.115585,143.531204 190.655334,142.819366 
	C187.651474,141.950241 184.952499,140.027390 182.127457,138.204437 
z"/>
<path fill="#999999" opacity="1.000000" stroke="none" 
	d="
M309.393860,138.542694 
	C312.399384,138.133423 315.367035,138.133423 318.906036,138.133423 
	C318.906036,112.760773 318.906036,87.903603 318.845093,62.591541 
	C323.178192,63.199394 324.499756,66.966415 324.534760,70.475327 
	C324.773621,94.401146 324.659821,118.330490 324.659821,142.983749 
	C320.093445,142.983749 315.818848,143.204941 311.604187,142.801025 
	C310.739777,142.718170 310.099548,140.295883 309.393860,138.542694 
z"/>
<path fill="#999999" opacity="1.000000" stroke="none" 
	d="
M458.181641,138.556763 
	C461.162445,138.139175 464.132660,138.139175 467.879700,138.139175 
	C467.879700,113.101357 467.879700,88.495415 467.953400,63.422417 
	C469.642334,64.782227 471.654510,66.402664 472.746063,68.501846 
	C473.605286,70.154305 473.523651,72.396652 473.527863,74.377686 
	C473.574341,96.191208 473.558044,118.004875 473.545380,139.818497 
	C473.544891,140.631348 473.407440,141.444138 473.268097,142.982254 
	C468.920624,142.982254 464.651031,143.203812 460.441254,142.800537 
	C459.570343,142.717102 458.921997,140.310318 458.181641,138.556763 
z"/>
<path fill="#999999" opacity="1.000000" stroke="none" 
	d="
M114.960922,138.561066 
	C118.049339,138.134140 121.181381,138.134140 124.926895,138.134140 
	C124.926895,112.026619 124.926895,86.439407 125.024490,60.387131 
	C126.585724,59.922070 128.049362,59.922070 129.768570,59.922070 
	C129.768570,87.677917 129.768570,115.038750 129.768570,143.000473 
	C125.950119,143.000473 122.324944,142.774536 118.741936,143.066422 
	C115.410828,143.337769 114.654846,141.807816 114.960922,138.561066 
z"/>
<path fill="#999999" opacity="1.000000" stroke="none" 
	d="
M351.677490,138.529663 
	C354.873291,138.130417 358.006012,138.130417 361.491119,138.130417 
	C361.491119,129.157776 361.895721,120.714104 361.270660,112.347359 
	C361.053192,109.436516 358.289276,106.715919 356.489532,103.559814 
	C361.166412,100.165527 362.086456,94.773514 361.865173,88.919052 
	C361.532928,80.129753 361.277954,71.337540 360.983521,62.089348 
	C365.218689,63.714355 366.790314,67.450478 366.853821,71.829880 
	C366.983978,80.799706 367.266937,89.795998 366.708588,98.732765 
	C366.490967,102.216408 364.175385,105.568977 362.530487,109.696091 
	C371.546295,118.703598 364.660004,131.097412 367.452118,142.644409 
	C361.759064,142.644409 357.029755,142.644409 351.918671,142.644409 
	C351.822937,141.474960 351.718689,140.201935 351.677490,138.529663 
z"/>
<path fill="#999999" opacity="1.000000" stroke="none" 
	d="
M156.960876,138.561066 
	C160.044983,138.134140 163.172714,138.134140 166.010315,138.134140 
	C166.463867,137.343552 166.764435,137.064499 166.763321,136.786682 
	C166.663742,112.348633 166.540985,87.910675 166.460068,63.044415 
	C171.578903,63.998829 171.962585,68.168983 171.978485,72.299553 
	C172.057175,92.727005 172.019516,113.154915 172.022736,133.582657 
	C172.023209,136.532486 172.022797,139.482300 172.022797,143.000443 
	C167.936050,143.000443 164.313339,142.774124 160.732971,143.066452 
	C157.398911,143.338654 156.659363,141.797272 156.960876,138.561066 
z"/>
<path fill="#999999" opacity="1.000000" stroke="none" 
	d="
M249.442093,137.417969 
	C253.443100,137.056717 257.554077,136.986298 262.845612,136.895645 
	C265.984924,140.275116 271.436676,136.961411 277.194580,138.263824 
	C277.194580,123.524300 277.194580,109.458344 277.288208,95.002167 
	C278.997833,94.611946 280.613800,94.611946 282.492493,94.611946 
	C282.492493,110.786781 282.492493,126.488335 282.492493,143.444031 
	C277.253052,142.865158 272.218567,142.283142 267.176483,141.776337 
	C266.300262,141.688248 265.324951,141.733215 264.509399,142.029984 
	C258.447693,144.235840 253.455841,142.895126 249.442093,137.417969 
z"/>
<path fill="#999999" opacity="1.000000" stroke="none" 
	d="
M416.028137,138.568954 
	C419.129150,138.144104 422.231903,138.144104 425.985809,138.144104 
	C425.985809,117.307503 425.985809,97.146851 426.031616,76.525223 
	C427.536591,76.064247 428.995697,76.064247 430.739136,76.064247 
	C430.739136,98.474068 430.739136,120.447777 430.739136,143.000443 
	C426.932922,143.000443 423.314606,142.782394 419.735687,143.064270 
	C416.426025,143.324921 415.635010,141.833496 416.028137,138.568954 
z"/>
<path fill="#999999" opacity="1.000000" stroke="none" 
	d="
M193.568970,59.110420 
	C193.989594,79.597771 194.067581,100.224274 193.954849,120.849724 
	C193.947052,122.276726 192.518600,123.695969 191.750793,125.118813 
	C190.847137,123.665764 189.170425,122.220146 189.156387,120.758553 
	C188.961365,100.462555 188.994232,80.164368 189.042694,59.398209 
	C190.469528,59.036240 191.825089,59.142780 193.568970,59.110420 
z"/>
<path fill="#999999" opacity="1.000000" stroke="none" 
	d="
M376.939575,138.381317 
	C381.412109,138.014328 385.877716,138.036163 390.342773,137.996353 
	C398.644775,137.922379 403.573730,133.182938 403.820953,124.841011 
	C403.982635,119.386398 403.877258,113.923859 403.920593,108.057358 
	C405.396393,107.649841 406.843048,107.649841 408.742950,107.649841 
	C408.742950,116.296394 409.101318,124.704727 408.604767,133.062271 
	C408.319641,137.861252 405.064667,141.787720 400.236298,142.369812 
	C394.231384,143.093704 388.047516,142.782486 381.987152,142.316895 
	C380.221100,142.181213 378.612915,139.990845 376.939575,138.381317 
z"/>
<path fill="#999999" opacity="1.000000" stroke="none" 
	d="
M388.984131,102.296112 
	C388.735138,107.822182 388.438080,112.910110 388.180939,118.000053 
	C388.097076,119.659439 388.301849,121.357765 388.007477,122.971313 
	C387.871735,123.715477 386.655884,124.942307 386.274200,124.825432 
	C385.382294,124.552299 384.420074,123.733116 384.010590,122.882645 
	C383.616089,122.063278 383.857971,120.926964 383.857666,119.929886 
	C383.853149,104.130325 383.854401,88.330772 383.855438,72.531212 
	C383.855469,71.866013 383.633118,71.069611 383.919006,70.562370 
	C384.553741,69.436066 385.445648,68.454712 386.232666,67.414261 
	C386.880768,68.432549 388.047882,69.430504 388.088715,70.472588 
	C388.283936,75.454102 388.154175,80.447701 388.185333,85.436722 
	C388.193604,86.756454 388.363342,88.075180 388.715393,89.720306 
	C388.965118,93.983749 388.958344,97.921257 388.984131,102.296112 
z"/>
<path fill="#999999" opacity="1.000000" stroke="none" 
	d="
M80.020355,138.522125 
	C83.074478,138.106506 86.215897,138.106506 89.823502,138.106506 
	C89.823502,124.044289 89.823502,110.310921 89.823502,96.577545 
	C90.053993,96.568146 90.284477,96.558739 90.514969,96.549339 
	C92.352310,110.028961 94.189651,123.508583 96.024460,137.403458 
	C95.717285,139.393845 95.412643,140.968979 95.021164,142.993149 
	C90.902626,142.993149 86.844002,142.910614 82.790489,143.019150 
	C79.522713,143.106628 80.318939,140.741119 80.020355,138.522125 
z"/>
<path fill="#999999" opacity="1.000000" stroke="none" 
	d="
M289.393860,138.542679 
	C292.402985,138.133423 295.374207,138.133423 299.130524,138.133423 
	C299.130524,130.369568 299.075104,123.113144 299.167847,115.858612 
	C299.192291,113.947220 298.120728,111.069542 301.829224,111.250336 
	C305.598114,111.434082 304.513977,114.186394 304.482056,116.424255 
	C304.382629,123.399864 304.342010,130.376312 304.508911,137.689072 
	C304.739227,139.477737 304.739227,140.929779 304.739227,142.996613 
	C300.216431,142.996613 296.131195,142.914001 292.051056,143.022781 
	C288.800507,143.109436 289.391998,140.874466 289.393860,138.542679 
z"/>
<path fill="#999999" opacity="1.000000" stroke="none" 
	d="
M438.181671,138.556747 
	C441.160339,138.139175 444.128448,138.139175 447.946289,138.139175 
	C447.946289,131.350372 447.946075,124.971344 447.946381,118.592316 
	C447.946411,117.267639 447.631653,115.835335 448.035553,114.647705 
	C448.463226,113.390221 449.575195,112.365456 450.388245,111.239029 
	C451.231964,112.328629 452.767303,113.393219 452.807739,114.511879 
	C453.082764,122.116241 453.042786,129.731979 453.298126,137.699326 
	C453.491791,139.502182 453.491791,140.949768 453.491791,142.995514 
	C449.008392,142.995514 444.936157,142.907104 440.869781,143.023529 
	C437.623291,143.116486 438.228485,140.879578 438.181671,138.556747 
z"/>
<path fill="#999999" opacity="1.000000" stroke="none" 
	d="
M267.299072,84.348984 
	C270.368378,84.197807 273.437683,84.046623 276.906036,83.875793 
	C276.906036,76.715843 276.906036,69.881088 276.845093,62.591492 
	C281.177704,63.199032 282.277130,66.932907 282.536560,70.481743 
	C282.982025,76.575806 282.659698,82.725990 282.659698,89.249527 
	C280.791779,89.403824 279.186523,89.536423 277.121582,89.704895 
	C273.901886,89.763275 271.141815,89.785789 267.908386,89.444107 
	C267.389679,87.502930 267.344360,85.925957 267.299072,84.348984 
z"/>
<path fill="#999999" opacity="1.000000" stroke="none" 
	d="
M136.960922,138.561066 
	C140.035690,138.134140 143.154068,138.134140 146.751526,138.134140 
	C146.751526,129.129761 146.751526,120.596405 146.751526,111.731796 
	C148.605591,111.731796 149.978607,111.731796 151.903427,111.731796 
	C151.903427,120.302910 151.903427,128.700073 151.950897,137.566162 
	C151.998367,139.489899 151.998367,140.944733 151.998367,142.992004 
	C147.687668,142.992004 143.652100,142.895401 139.623550,143.022156 
	C136.319748,143.126114 137.190781,140.771500 136.960922,138.561066 
z"/>
<path fill="#999999" opacity="1.000000" stroke="none" 
	d="
M393.666565,90.547104 
	C396.858582,90.149727 399.986206,90.149727 403.016907,90.149727 
	C403.016907,80.578667 403.016907,71.558548 402.996460,62.085094 
	C404.925232,64.541054 408.243286,67.311157 408.556000,70.386826 
	C409.357605,78.270912 408.823608,86.290787 408.823608,94.630035 
	C403.788361,94.630035 399.052124,94.630035 393.925873,94.630035 
	C393.826141,93.494347 393.714172,92.219414 393.666565,90.547104 
z"/>
<path fill="#999999" opacity="1.000000" stroke="none" 
	d="
M100.117867,138.435028 
	C101.100136,138.001114 102.251602,137.921829 103.807732,137.814682 
	C105.659035,123.851967 107.512924,109.869781 109.341324,96.079781 
	C109.593689,95.806038 109.697945,95.692947 109.802200,95.579865 
	C109.846085,109.392662 109.889961,123.205467 109.968918,137.482437 
	C109.759094,139.405365 109.514183,140.864136 109.214844,142.647064 
	C106.705620,142.647064 104.305656,142.647064 101.436104,142.647064 
	C101.104057,141.532379 100.695564,140.161026 100.117867,138.435028 
z"/>
<path fill="#999999" opacity="1.000000" stroke="none" 
	d="
M331.895081,138.577576 
	C334.990570,138.148270 338.097076,138.148270 341.853607,138.148270 
	C341.853607,131.085953 341.670563,124.668015 341.947296,118.269966 
	C342.052216,115.844376 343.587036,111.336540 343.842865,111.381065 
	C348.135803,112.128365 345.935211,115.672310 346.074341,118.032082 
	C346.453735,124.466789 346.359711,130.929413 346.709351,137.705261 
	C346.871063,139.495377 346.776703,140.961212 346.664368,142.706635 
	C341.885864,142.706635 337.300323,142.706635 332.301483,142.706635 
	C332.172241,141.497574 332.039154,140.252228 331.895081,138.577576 
z"/>
<path fill="#FEDD5A" opacity="1.000000" stroke="none" 
	d="
M416.026428,66.144089 
	C414.544586,66.026703 413.062744,65.909317 411.246704,65.765450 
	C411.246704,62.283718 411.246704,58.893147 411.246704,54.852497 
	C415.356812,54.852497 419.301178,54.935020 423.240326,54.827000 
	C426.530914,54.736763 425.788574,57.120079 425.990845,59.842430 
	C425.877258,62.317665 425.769562,63.917965 425.619781,66.144089 
	C422.227966,66.144089 419.127197,66.144089 416.026428,66.144089 
z"/>
<path fill="#999999" opacity="1.000000" stroke="none" 
	d="
M102.668381,71.211655 
	C102.217300,77.023544 101.343597,82.976166 100.469894,88.928787 
	C100.138641,88.910141 99.807381,88.891487 99.476120,88.872841 
	C97.939415,79.215607 96.402710,69.558372 94.902634,59.473083 
	C96.352257,59.301430 97.765251,59.557823 98.998085,59.781525 
	C100.122215,63.786598 101.183983,67.569489 102.668381,71.211655 
z"/>
<path fill="#999999" opacity="1.000000" stroke="none" 
	d="
M416.027985,66.539627 
	C419.127197,66.144089 422.227966,66.144089 425.619781,66.144089 
	C425.769562,63.917965 425.877258,62.317665 426.036682,60.267204 
	C427.551208,59.895428 429.013977,59.973812 430.743469,60.066486 
	C430.743469,63.520069 430.743469,66.773018 430.743469,70.623886 
	C429.540100,70.747482 428.161560,70.889061 426.335022,71.081802 
	C422.910553,71.081985 419.934082,71.030998 416.512299,70.938675 
	C416.054504,69.576622 416.042023,68.255890 416.027985,66.539627 
z"/>
<path fill="#999999" opacity="1.000000" stroke="none" 
	d="
M468.055359,62.653725 
	C467.738678,62.707375 467.433136,62.423878 467.076233,61.805756 
	C467.372040,61.752949 467.719269,62.034767 468.055359,62.653725 
z"/>
<path fill="#999999" opacity="1.000000" stroke="none" 
	d="
M375.970459,137.433304 
	C376.159180,137.327332 376.470764,137.454346 376.893372,137.813950 
	C376.700684,137.919800 376.396973,137.793045 375.970459,137.433304 
z"/>
<path fill="#999999" opacity="1.000000" stroke="none" 
	d="
M341.853394,82.999191 
	C341.853241,77.546600 341.853241,72.592461 341.853241,67.638329 
	C342.390472,67.357666 342.927704,67.077003 343.464966,66.796333 
	C344.368042,68.033730 346.017426,69.250076 346.053009,70.511925 
	C346.282959,78.667427 346.246063,86.834969 346.044678,94.992340 
	C346.019836,95.997902 344.501465,96.966583 343.675201,97.952347 
	C343.070435,96.965401 341.999603,96.004021 341.943817,94.986969 
	C341.734283,91.167030 341.855957,87.328941 341.853394,82.999191 
z"/>
<path fill="#999999" opacity="1.000000" stroke="none" 
	d="
M151.884247,89.935181 
	C151.884232,93.042763 151.884232,95.660965 151.884232,98.582230 
	C150.116043,98.582230 148.749893,98.582230 147.317871,98.582230 
	C147.158051,97.983276 146.928391,97.520729 146.926743,97.057365 
	C146.896698,88.616203 146.767166,80.171402 147.003128,71.737000 
	C147.045349,70.228012 148.623474,68.761978 149.492432,67.276108 
	C150.289093,68.707420 151.708542,70.111183 151.773285,71.574867 
	C152.036316,77.521843 151.883652,83.487206 151.884247,89.935181 
z"/>
<path fill="#999999" opacity="1.000000" stroke="none" 
	d="
M299.130737,83.999588 
	C299.136108,79.198746 298.982086,74.885826 299.251648,70.599548 
	C299.324585,69.439598 300.679413,68.360283 301.445892,67.243965 
	C302.501190,68.318756 304.461060,69.387085 304.468811,70.469360 
	C304.531311,79.220955 304.289825,87.977783 303.924835,96.723984 
	C303.893188,97.482498 302.266754,98.785614 301.457581,98.729660 
	C300.638397,98.673027 299.306580,97.279610 299.252686,96.406731 
	C299.008484,92.449562 299.136566,88.469414 299.130737,83.999588 
z"/>
<path fill="#999999" opacity="1.000000" stroke="none" 
	d="
M452.922180,86.981415 
	C452.922119,91.093620 452.922119,94.710281 452.922119,98.270760 
	C449.333710,99.534309 447.838928,98.838638 447.903748,95.217209 
	C448.046417,87.244545 447.828766,79.263985 448.066498,71.295853 
	C448.107391,69.923798 449.668945,68.597107 450.528076,67.249466 
	C451.325073,68.677101 452.724060,70.069748 452.809448,71.538742 
	C453.098145,76.506523 452.921173,81.501366 452.922180,86.981415 
z"/>
<path fill="#999999" opacity="1.000000" stroke="none" 
	d="
M262.752411,89.749207 
	C261.827789,90.954964 260.048615,92.224495 260.132965,93.354965 
	C260.428864,97.320114 261.722565,101.214783 261.973999,105.178299 
	C262.320374,110.637802 262.200470,116.141541 261.963348,121.612595 
	C261.907623,122.897774 260.582489,124.127922 259.841370,125.383377 
	C258.941650,124.169540 257.357849,123.005165 257.265839,121.732918 
	C256.943207,117.271210 257.131500,112.772339 257.131012,108.287575 
	C257.129761,96.328148 257.030762,84.366928 257.243134,72.411270 
	C257.273895,70.679466 258.802887,68.974274 259.638550,67.256767 
	C260.601868,69.224388 262.146729,71.121071 262.397339,73.175629 
	C262.812866,76.582153 262.395782,80.090240 262.567444,84.294144 
	C262.787750,86.604897 262.770081,88.177048 262.752411,89.749207 
z"/>
<path fill="#FFFFFF" opacity="1.000000" stroke="none" 
	d="
M263.228851,89.805756 
	C262.770081,88.177048 262.787750,86.604897 262.802948,84.643036 
	C263.998474,84.245514 265.196503,84.237686 266.846802,84.289429 
	C267.344360,85.925957 267.389679,87.502930 267.493713,89.478561 
	C266.270020,89.872246 264.987671,89.867279 263.228851,89.805756 
z"/>
</svg>